# xmcd CD database file
#
# Track frame offsets:
#	150
#	21120
#	33347
#	55507
#	73765
#	90612
#	107747
#	127130
#	142307
#	163052
#	172972
#	190402
#
# Disc length: 2712 seconds
#
# Revision: 0
# Processed by: cddbd v1.5.1PL2 Copyright (c) Steve Scherf et al.
# Submitted via: CDex 1.51
#
DISCID=aa0a960c
DTITLE=蟻プロジェクト - 幻想庭園
DYEAR=1988
DGENRE=Japanese Pop
TTITLE0=青蛾月
TTITLE1=マリーゴールド・ガーデン
TTITLE2=鏡面界 im Juni
TTITLE3=姉ｊ・ノワールの祭戯
TTITLE4=紅い睡蓮の午後
TTITLE5=桜の花は狂い咲き
TTITLE6=少女忌恋歌
TTITLE7=パラソルのある風景
TTITLE8=硝子天井のうちゅう
TTITLE9=幻想庭園
TTITLE10=Pouppr Frou Frou
TTITLE11=フラワー・チャイルド
EXTD=YEAR: 1988
EXTT0=
EXTT1=
EXTT2=
EXTT3=
EXTT4=
EXTT5=
EXTT6=
EXTT7=
EXTT8=
EXTT9=
EXTT10=
EXTT11=
PLAYORDER=
